# xmcd
# 
# Track frame offsets:
#     150
#     18117
#     32752
#     51040
#     69312
#     87135
#     101012
#     121645
#     140967
#     162247
#     175965
#     190285
#     205782
#     222840
#     234932
# 
# Disc length: 3388
# 
# Revision: 23
# Processed by: cddbd v1.5.2PL0 Copyright (c) Steve Scherf et al.
# Submitted via: BonkEnc v1.0.6
# 
DISCID=c50d3a0f
DTITLE=Zezé Di Camargo and Luciano - Pão de Mel
DYEAR=1995
DGENRE=Sertaneja
TTITLE0=Pão de Mel
TTITLE1=No Dia Em Que Eu Sai De Casa
TTITLE2=Na Hora H
TTITLE3=Vem Ficar Comigo
TTITLE4=Eu Acabo Voltando
TTITLE5=Doce Paixão
TTITLE6=Sem Medo De Ser Feliz
TTITLE7=Menina Veneno
TTITLE8=Nem É Bom Lembrar
TTITLE9=Na Esquina Dos Meus Sonhos
TTITLE10=Não Dá Pra Esperar
TTITLE11=Liberdade, Liberdade
TTITLE12=Pedras
TTITLE13=Hoje Eu Topo Tudo o Que Vier
TTITLE14=Foi a Primeira Vez
EXTD=YEAR: 1995
EXTT0=
EXTT1=
EXTT2=
EXTT3=
EXTT4=
EXTT5=
EXTT6=
EXTT7=
EXTT8=
EXTT9=
EXTT10=
EXTT11=
EXTT12=
EXTT13=
EXTT14=
PLAYORDER=
